<?xml version="1.0" encoding="UTF-8" standalone="no"?>
<svg
   xmlns:dc="http://purl.org/dc/elements/1.1/"
   xmlns:cc="http://creativecommons.org/ns#"
   xmlns:rdf="http://www.w3.org/1999/02/22-rdf-syntax-ns#"
   xmlns:svg="http://www.w3.org/2000/svg"
   xmlns="http://www.w3.org/2000/svg"
   xmlns:sodipodi="http://sodipodi.sourceforge.net/DTD/sodipodi-0.dtd"
   xmlns:inkscape="http://www.inkscape.org/namespaces/inkscape"
   inkscape:version="1.0beta2 (2b71d25, 2019-12-03)"
   sodipodi:docname="mutfunc_logo.svg"
   xml:space="preserve"
   enable-background="new 0 0 374.5 54"
   viewBox="0 0 624 54"
   height="54"
   width="624"
   y="0px"
   x="0px"
   id="Layer_1"
   version="1.1"><metadata
   id="metadata989"><rdf:RDF><cc:Work
       rdf:about=""><dc:format>image/svg+xml</dc:format><dc:type
         rdf:resource="http://purl.org/dc/dcmitype/StillImage" /><dc:title /></cc:Work></rdf:RDF></metadata><defs
   id="defs987" /><sodipodi:namedview
   inkscape:current-layer="Layer_1"
   inkscape:window-maximized="0"
   inkscape:window-y="25"
   inkscape:window-x="60"
   inkscape:cy="41.721219"
   inkscape:cx="329.5265"
   inkscape:zoom="1.9183458"
   inkscape:snap-nodes="false"
   showgrid="false"
   id="namedview985"
   inkscape:window-height="924"
   inkscape:window-width="1860"
   inkscape:pageshadow="2"
   inkscape:pageopacity="0"
   guidetolerance="10"
   gridtolerance="10"
   objecttolerance="10"
   borderopacity="1"
   inkscape:document-rotation="0"
   bordercolor="#666666"
   pagecolor="#ffffff" />
<g
   id="g944">
	<path
   inkscape:connector-curvature="0"
   id="path930"
   d="M 184.955,44.607 V 26.848 c 0,-5.7 -3.84,-9.72 -9.48,-9.72 -5.64,0 -9.54,4.2 -9.54,9.9 v 17.579 h -2.94 V 27.028 c 0,-5.7 -3.899,-9.84 -9.54,-9.84 -5.64,0 -9.479,4.14 -9.479,9.84 v 17.579 h -2.94 V 14.968 h 2.76 l 0.06,4.92 c 2.04,-3.9 5.82,-5.52 9.66,-5.52 4.5,0 9.24,2.04 10.979,7.32 1.8,-4.86 6.42,-7.32 10.979,-7.32 7.26,0 12.42,5.1 12.42,12.479 v 17.759 h -2.939 z"
   fill="#414042" />
	<path
   inkscape:connector-curvature="0"
   id="path932"
   d="m 218.795,44.607 v -5.34 c -2.28,4.08 -6.419,5.76 -10.56,5.82 -7.919,0 -13.379,-4.86 -13.379,-13.08 V 14.908 h 2.94 v 17.039 c 0,6.72 4.14,10.32 10.56,10.26 6.12,-0.06 10.38,-4.68 10.38,-10.799 v -16.5 h 2.939 v 29.699 z"
   fill="#414042" />
	<path
   inkscape:connector-curvature="0"
   id="path934"
   d="m 236.195,6.028 v 8.94 h 10.08 v 2.46 h -10.08 v 18.059 c 0,4.02 0.84,6.84 5.46,6.84 1.44,0 3.06,-0.48 4.56,-1.2 l 1.02,2.4 c -1.86,0.9 -3.72,1.5 -5.58,1.5 -6.3,0 -8.34,-3.72 -8.34,-9.54 V 17.428 h -6.3 v -2.46 h 6.3 v -8.64 z"
   fill="#414042" />
	<path
   inkscape:connector-curvature="0"
   id="path936"
   d="M 254.556,44.607 V 21.868 h -5.52 v -6.419 h 5.52 v -1.98 c 0,-7.92 5.34,-11.58 11.279,-11.58 2.58,0 5.28,0.84 7.68,2.4 l -2.7,5.46 c -1.56,-1.02 -3,-1.56 -4.5,-1.56 -2.52,0 -4.44,1.68 -4.44,5.28 v 1.98 h 8.7 v 6.419 h -8.7 v 22.739 z"
   fill="#414042" />
	<path
   inkscape:connector-curvature="0"
   id="path938"
   d="m 282.575,15.028 v 15.479 c 0,4.5 2.46,7.92 7.14,7.92 4.5,0 7.56,-3.78 7.56,-8.28 V 15.028 h 7.26 v 29.639 h -6.541 l -0.48,-4.02 c -3.06,3 -5.88,4.44 -10.02,4.44 -7.08,0 -12.239,-5.34 -12.239,-14.52 V 15.028 Z"
   fill="#414042" />
	<path
   inkscape:connector-curvature="0"
   id="path940"
   d="m 332.795,44.607 v -15.48 c 0,-4.5 -2.46,-7.919 -7.14,-7.919 -4.5,0 -7.56,3.78 -7.56,8.28 v 15.119 h -7.26 V 14.968 h 6.539 l 0.48,4.02 c 3,-2.939 6,-4.439 9.72,-4.439 6.959,0 12.539,5.22 12.539,14.519 v 15.54 h -7.318 z"
   fill="#414042" />
	<path
   inkscape:connector-curvature="0"
   id="path942"
   d="m 371.795,40.827 c -3.42,3.36 -7.021,4.68 -11.4,4.68 -8.579,0 -15.719,-5.16 -15.719,-15.659 0,-10.499 7.14,-15.66 15.719,-15.66 4.2,0 7.44,1.2 10.68,4.38 l -4.619,4.86 c -1.74,-1.56 -3.9,-2.34 -5.94,-2.34 -4.92,0 -8.52,3.6 -8.52,8.76 0,5.64 3.84,8.64 8.399,8.64 2.341,0 4.681,-0.66 6.48,-2.46 z"
   fill="#414042" />
</g>
<g
   id="g982">
	<g
   transform="translate(272.48237,1011.2534)"
   id="g64">
		<g
   id="path66">
			<path
   inkscape:connector-curvature="0"
   id="path946"
   d="m -211.431,-974 c 0,1.685 1.366,3.045 3.049,3.045 1.685,0 3.049,-1.36 3.049,-3.045 v -16.852 c 0,-1.682 -1.364,-3.048 -3.049,-3.048 -1.683,0 -3.049,1.366 -3.049,3.048 z"
   fill="#414042" />
		</g>
	</g>
	<g
   transform="translate(272.48237,863.46241)"
   id="g68">
		<g
   id="path70">
			<path
   inkscape:connector-curvature="0"
   id="path950"
   d="m -268.835,-826.209 c 0,1.684 1.366,3.045 3.048,3.045 1.684,0 3.05,-1.361 3.05,-3.045 v -16.852 c 0,-1.683 -1.366,-3.049 -3.05,-3.049 -1.682,0 -3.048,1.366 -3.048,3.049 z"
   fill="#414042" />
		</g>
	</g>
	<g
   transform="translate(285.18547,974.30611)"
   id="g72">
		<g
   id="path74">
			<path
   inkscape:connector-curvature="0"
   id="path954"
   d="m -238.484,-932.118 c 0,1.682 1.364,3.048 3.049,3.048 1.685,0 3.049,-1.366 3.049,-3.048 v -26.719 c 0,-1.688 -1.364,-3.053 -3.049,-3.053 -1.685,0 -3.049,1.366 -3.049,3.053 z"
   fill="#414042" />
		</g>
	</g>
	<g
   transform="translate(285.18547,900.41061)"
   id="g76">
		<g
   id="path78">
			<path
   inkscape:connector-curvature="0"
   id="path958"
   d="m -267.186,-858.223 c 0,1.682 1.367,3.048 3.049,3.048 1.683,0 3.049,-1.366 3.049,-3.048 v -26.719 c 0,-1.688 -1.366,-3.053 -3.049,-3.053 -1.682,0 -3.049,1.366 -3.049,3.053 z"
   fill="#DA1C5C" />
		</g>
	</g>
	<g
   transform="translate(299.74797,937.36081)"
   id="g80">
		<g
   id="path82">
			<path
   inkscape:connector-curvature="0"
   id="path962"
   d="m -267.401,-889.519 c 0,1.688 1.366,3.054 3.051,3.054 1.686,0 3.051,-1.366 3.051,-3.054 v -38.034 c 0,-1.682 -1.366,-3.044 -3.051,-3.044 -1.685,0 -3.051,1.362 -3.051,3.044 z"
   fill="#414042" />
		</g>
	</g>
	<g
   transform="translate(272.48237,1011.2534)"
   id="g64_1_">
		<g
   id="path66_1_">
			<path
   inkscape:connector-curvature="0"
   id="path966"
   d="m -154.027,-974 c 0,1.685 1.366,3.045 3.049,3.045 1.685,0 3.049,-1.36 3.049,-3.045 v -16.852 c 0,-1.682 -1.364,-3.048 -3.049,-3.048 -1.683,0 -3.049,1.366 -3.049,3.048 z"
   fill="#414042" />
		</g>
	</g>
	<g
   transform="translate(285.18547,974.30611)"
   id="g72_1_">
		<g
   id="path74_1_">
			<path
   inkscape:connector-curvature="0"
   id="path970"
   d="m -181.08,-932.118 c 0,1.682 1.364,3.048 3.049,3.048 1.685,0 3.049,-1.366 3.049,-3.048 v -26.719 c 0,-1.688 -1.364,-3.053 -3.049,-3.053 -1.685,0 -3.049,1.366 -3.049,3.053 z"
   fill="#DA1C5C" />
		</g>
	</g>
	<g
   transform="translate(285.18547,900.41061)"
   id="g76_1_">
		<g
   id="path78_1_">
			<path
   inkscape:connector-curvature="0"
   id="path974"
   d="m -209.783,-858.223 c 0,1.682 1.367,3.048 3.049,3.048 1.683,0 3.049,-1.366 3.049,-3.048 v -26.719 c 0,-1.688 -1.366,-3.053 -3.049,-3.053 -1.682,0 -3.049,1.366 -3.049,3.053 z"
   fill="#414042" />
		</g>
	</g>
	<g
   transform="translate(299.74797,937.36081)"
   id="g80_1_">
		<g
   id="path82_1_">
			<path
   inkscape:connector-curvature="0"
   id="path978"
   d="m -209.997,-889.519 c 0,1.688 1.366,3.054 3.05,3.054 1.686,0 3.052,-1.366 3.052,-3.054 v -38.034 c 0,-1.682 -1.366,-3.044 -3.052,-3.044 -1.685,0 -3.05,1.362 -3.05,3.044 z"
   fill="#414042" />
		</g>
	</g>
</g>
<g
   aria-label="SARS-CoV-2"
   id="text993"
   style="font-size:42.6667px;line-height:1.25;font-family:sans-serif;text-align:center;text-anchor:middle;fill:#414042;fill-opacity:1"><path
     d="m 408.10396,18.964991 q -0.98134,-1.365335 -2.51734,-2.176002 -1.536,-0.853334 -3.712,-0.853334 -1.10933,0 -2.26133,0.341334 -1.15201,0.341333 -2.09067,1.066667 -0.93867,0.682667 -1.536,1.749335 -0.55467,1.066667 -0.55467,2.517335 0,1.450668 0.55467,2.389335 0.55466,0.938667 1.45066,1.621335 0.93867,0.64 2.09067,1.066667 1.19467,0.426667 2.47467,0.853334 1.57867,0.512 3.15734,1.109334 1.62133,0.597334 2.90133,1.578668 1.28,0.938667 2.09067,2.432002 0.81067,1.450668 0.81067,3.712003 0,2.261335 -0.896,3.925336 -0.85334,1.621334 -2.26134,2.688002 -1.36533,1.066667 -3.15733,1.578668 -1.74934,0.512 -3.54134,0.512 -1.36533,0 -2.73067,-0.298667 -1.36533,-0.256 -2.60267,-0.810667 -1.23733,-0.554667 -2.304,-1.408001 -1.06667,-0.853334 -1.87733,-1.962668 l 2.64533,-1.962668 q 0.98134,1.621334 2.73067,2.730668 1.792,1.066668 4.18134,1.066668 1.152,0 2.34666,-0.341334 1.19467,-0.384 2.13334,-1.109334 0.98133,-0.768 1.57867,-1.834668 0.64,-1.109334 0.64,-2.560002 0,-1.578668 -0.64,-2.602668 -0.59734,-1.066668 -1.62134,-1.749335 -1.024,-0.725334 -2.34667,-1.194668 -1.32266,-0.469333 -2.77333,-0.938667 -1.49334,-0.469334 -2.944,-1.066667 -1.45067,-0.597334 -2.60267,-1.536002 -1.152,-0.981334 -1.87734,-2.389335 -0.68266,-1.408001 -0.68266,-3.456002 0,-2.176002 0.85333,-3.75467 0.896,-1.578668 2.304,-2.602668 1.408,-1.024001 3.11467,-1.493335 1.70667,-0.469334 3.37067,-0.469334 3.072,0 5.248,1.109335 2.17601,1.066667 3.28534,2.560002 z"
     style="font-style:normal;font-variant:normal;font-weight:normal;font-stretch:normal;font-family:'Avenir Next';-inkscape-font-specification:'Avenir Next'"
     id="path1111" /><path
     d="m 417.3393,44.30901 h -3.37067 l 13.05601,-30.208023 h 2.98667 l 12.97067,30.208023 h -3.41333 l -3.328,-7.936006 h -15.61602 z m 4.43733,-10.752008 h 13.31201 l -6.656,-16.042679 z"
     style="font-style:normal;font-variant:normal;font-weight:normal;font-stretch:normal;font-family:'Avenir Next';-inkscape-font-specification:'Avenir Next'"
     id="path1113" /><path
     d="m 450.45799,44.30901 h -3.072 V 14.100987 h 8.87467 q 2.21867,0 4.096,0.426667 1.92,0.426667 3.28534,1.408001 1.408,0.938667 2.176,2.474669 0.768,1.536001 0.768,3.754669 0,1.664001 -0.59733,3.029336 -0.59734,1.365334 -1.62134,2.389335 -1.024,0.981334 -2.432,1.578668 -1.408,0.597333 -3.072,0.768 l 8.83201,14.378678 h -3.75467 l -8.36268,-14.122678 h -5.12 z m 0,-16.768013 h 5.33334 q 3.712,0 5.71733,-1.322668 2.00534,-1.365334 2.00534,-4.053336 0,-1.493334 -0.55467,-2.517335 -0.55467,-1.024001 -1.536,-1.664001 -0.98133,-0.640001 -2.38933,-0.938668 -1.40801,-0.298667 -3.11467,-0.298667 h -5.46134 z"
     style="font-style:normal;font-variant:normal;font-weight:normal;font-stretch:normal;font-family:'Avenir Next';-inkscape-font-specification:'Avenir Next'"
     id="path1115" /><path
     d="m 487.60402,18.964991 q -0.98133,-1.365335 -2.51734,-2.176002 -1.536,-0.853334 -3.712,-0.853334 -1.10933,0 -2.26133,0.341334 -1.152,0.341333 -2.09067,1.066667 -0.93867,0.682667 -1.536,1.749335 -0.55467,1.066667 -0.55467,2.517335 0,1.450668 0.55467,2.389335 0.55466,0.938667 1.45066,1.621335 0.93867,0.64 2.09067,1.066667 1.19467,0.426667 2.47467,0.853334 1.57867,0.512 3.15734,1.109334 1.62133,0.597334 2.90133,1.578668 1.28,0.938667 2.09067,2.432002 0.81067,1.450668 0.81067,3.712003 0,2.261335 -0.896,3.925336 -0.85334,1.621334 -2.26134,2.688002 -1.36533,1.066667 -3.15733,1.578668 -1.74934,0.512 -3.54134,0.512 -1.36533,0 -2.73067,-0.298667 -1.36533,-0.256 -2.60267,-0.810667 -1.23733,-0.554667 -2.304,-1.408001 -1.06667,-0.853334 -1.87733,-1.962668 l 2.64533,-1.962668 q 0.98134,1.621334 2.73067,2.730668 1.792,1.066668 4.18134,1.066668 1.152,0 2.34667,-0.341334 1.19466,-0.384 2.13333,-1.109334 0.98133,-0.768 1.57867,-1.834668 0.64,-1.109334 0.64,-2.560002 0,-1.578668 -0.64,-2.602668 -0.59734,-1.066668 -1.62134,-1.749335 -1.024,-0.725334 -2.34666,-1.194668 -1.32267,-0.469333 -2.77334,-0.938667 -1.49333,-0.469334 -2.944,-1.066667 -1.45067,-0.597334 -2.60267,-1.536002 -1.152,-0.981334 -1.87734,-2.389335 -0.68266,-1.408001 -0.68266,-3.456002 0,-2.176002 0.85333,-3.75467 0.896,-1.578668 2.304,-2.602668 1.408,-1.024001 3.11467,-1.493335 1.70667,-0.469334 3.37067,-0.469334 3.072,0 5.24801,1.109335 2.176,1.066667 3.28533,2.560002 z"
     style="font-style:normal;font-variant:normal;font-weight:normal;font-stretch:normal;font-family:'Avenir Next';-inkscape-font-specification:'Avenir Next'"
     id="path1117" /><path
     d="m 504.64737,35.178336 h -9.55735 v -2.432002 h 9.55735 z"
     style="font-style:normal;font-variant:normal;font-weight:normal;font-stretch:normal;font-family:'Avenir Next';-inkscape-font-specification:'Avenir Next'"
     id="path1119" /><path
     d="m 536.14872,39.445006 q -0.768,1.152001 -1.87734,2.176002 -1.06667,1.024 -2.51733,1.792001 -1.408,0.768 -3.15734,1.194667 -1.70667,0.469334 -3.75467,0.469334 -3.41333,0 -6.31467,-1.194667 -2.90134,-1.194668 -4.992,-3.285336 -2.09067,-2.133335 -3.28534,-5.034671 -1.152,-2.901335 -1.152,-6.357338 0,-3.456002 1.19467,-6.357338 1.19467,-2.901335 3.28533,-4.992003 2.13334,-2.133335 4.99201,-3.328003 2.90133,-1.194668 6.272,-1.194668 1.664,0 3.24267,0.341334 1.62134,0.341334 3.02934,0.981334 1.408,0.597334 2.56,1.493335 1.152,0.853334 1.92,1.962668 l -2.56,1.877334 q -0.46934,-0.725333 -1.28,-1.450667 -0.768,-0.725334 -1.83467,-1.280001 -1.06667,-0.554667 -2.34667,-0.896001 -1.23733,-0.341334 -2.688,-0.341334 -2.944,0 -5.29067,1.066668 -2.304,1.066667 -3.92534,2.901335 -1.62133,1.792002 -2.47467,4.181337 -0.85333,2.389335 -0.85333,5.03467 0,2.645336 0.85333,5.034671 0.896,2.389335 2.51734,4.224003 1.62133,1.792001 3.92533,2.858669 2.34667,1.066667 5.24801,1.066667 2.60267,0 4.94934,-1.066667 2.34666,-1.066668 3.92533,-3.413336 z"
     style="font-style:normal;font-variant:normal;font-weight:normal;font-stretch:normal;font-family:'Avenir Next';-inkscape-font-specification:'Avenir Next'"
     id="path1121" /><path
     d="m 560.63874,34.325002 q 0,2.261335 -0.81067,4.181337 -0.768,1.920001 -2.176,3.328002 -1.408,1.408001 -3.37067,2.218668 -1.96267,0.768001 -4.30934,0.768001 -2.304,0 -4.26667,-0.768001 -1.96267,-0.810667 -3.37067,-2.218668 -1.408,-1.408001 -2.21867,-3.328002 -0.768,-1.920002 -0.768,-4.181337 0,-2.261335 0.768,-4.181336 0.81067,-1.920002 2.21867,-3.328003 1.408,-1.408001 3.37067,-2.176001 1.96267,-0.810668 4.26667,-0.810668 2.34667,0 4.30934,0.810668 1.96267,0.768 3.37067,2.176001 1.408,1.408001 2.176,3.328003 0.81067,1.920001 0.81067,4.181336 z m -3.07201,0 q 0,-1.664001 -0.55466,-3.114669 -0.512,-1.493334 -1.49334,-2.560002 -0.98133,-1.109334 -2.38933,-1.749334 -1.408,-0.640001 -3.15734,-0.640001 -1.74933,0 -3.15733,0.640001 -1.36534,0.64 -2.34667,1.749334 -0.98134,1.066668 -1.536,2.560002 -0.512,1.450668 -0.512,3.114669 0,1.664001 0.512,3.157336 0.55466,1.450668 1.536,2.560002 0.98133,1.066667 2.34667,1.706668 1.408,0.597333 3.15733,0.597333 1.74934,0 3.15734,-0.597333 1.408,-0.640001 2.38933,-1.706668 0.98134,-1.109334 1.49334,-2.560002 0.55466,-1.493335 0.55466,-3.157336 z"
     style="font-style:normal;font-variant:normal;font-weight:normal;font-stretch:normal;font-family:'Avenir Next';-inkscape-font-specification:'Avenir Next'"
     id="path1123" /><path
     d="m 576.31142,40.341007 h 0.0853 l 9.81334,-26.24002 h 3.28534 L 577.93275,44.30901 h -3.24266 L 563.17008,14.100987 h 3.328 z"
     style="font-style:normal;font-variant:normal;font-weight:normal;font-stretch:normal;font-family:'Avenir Next';-inkscape-font-specification:'Avenir Next'"
     id="path1125" /><path
     d="m 600.23076,35.178336 h -9.55734 v -2.432002 h 9.55734 z"
     style="font-style:normal;font-variant:normal;font-weight:normal;font-stretch:normal;font-family:'Avenir Next';-inkscape-font-specification:'Avenir Next'"
     id="path1127" /><path
     d="m 623.79612,44.30901 h -19.32801 v -3.200003 l 12.37334,-12.501342 q 0.68267,-0.682668 1.32267,-1.450668 0.68267,-0.810667 1.19467,-1.664001 0.512,-0.853334 0.81066,-1.792002 0.29867,-0.981334 0.29867,-2.005335 0,-1.322667 -0.46933,-2.389335 -0.46934,-1.066667 -1.32267,-1.792001 -0.81067,-0.768001 -1.92,-1.152001 -1.06667,-0.426667 -2.26134,-0.426667 -2.432,0 -4.096,1.536001 -1.664,1.493335 -2.13334,3.840003 l -3.02933,-0.597334 q 0.29867,-1.578668 1.10933,-2.944002 0.85334,-1.365334 2.04801,-2.346668 1.23733,-0.981334 2.77333,-1.536001 1.536,-0.554668 3.328,-0.554668 1.83467,0 3.45601,0.554668 1.664,0.512 2.90133,1.578667 1.23734,1.024001 1.96267,2.602669 0.768,1.536001 0.768,3.584003 0,1.450667 -0.42667,2.688002 -0.384,1.237334 -1.06666,2.346668 -0.64001,1.109334 -1.53601,2.133335 -0.896,0.981334 -1.87733,1.962668 l -10.88001,10.794675 h 16.00001 z"
     style="font-style:normal;font-variant:normal;font-weight:normal;font-stretch:normal;font-family:'Avenir Next';-inkscape-font-specification:'Avenir Next'"
     id="path1129" /></g><text
   id="text997"
   y="110.51189"
   x="277.84354"
   style="font-size:48px;line-height:1.25;font-family:sans-serif;text-align:center;text-anchor:middle"
   xml:space="preserve"><tspan
     y="110.51189"
     x="277.84354"
     id="tspan995"
     sodipodi:role="line" /></text><text
   id="text1001"
   y="111.03316"
   x="253.34328"
   style="font-size:13.3333px;line-height:1.25;font-family:sans-serif;text-align:center;text-anchor:middle"
   xml:space="preserve"><tspan
     y="111.03316"
     x="253.34328"
     id="tspan999"
     sodipodi:role="line" /></text><g
   style="font-style:normal;font-variant:normal;font-weight:normal;font-stretch:normal;font-size:13.3333px;line-height:1.25;font-family:Avenir;-inkscape-font-specification:Avenir;text-align:center;text-anchor:middle;fill:#414042;fill-opacity:1"
   id="text1005"
   aria-label=":"><path
     id="path890"
     style="font-style:normal;font-variant:normal;font-weight:normal;font-stretch:normal;font-size:48px;font-family:'Avenir Next';-inkscape-font-specification:'Avenir Next';fill:#414042;fill-opacity:1"
     d="m 381.5456,20.50003 q 0,1.008 -0.72,1.824 -0.72,0.768 -1.872,0.768 -1.152,0 -1.872,-0.768 -0.72,-0.816 -0.72,-1.824 0,-1.008 0.72,-1.776 0.72,-0.816 1.872,-0.816 1.152,0 1.872,0.816 0.72,0.768 0.72,1.776 z m 0,17.856 q 0,1.008 -0.72,1.824 -0.72,0.768 -1.872,0.768 -1.152,0 -1.872,-0.768 -0.72,-0.816 -0.72,-1.824 0,-1.008 0.72,-1.776 0.72,-0.816 1.872,-0.816 1.152,0 1.872,0.816 0.72,0.768 0.72,1.776 z" /></g></svg>
